<svg width="59" height="59" fill="none" xmlns="http://www.w3.org/2000/svg"><g clip-path="url(#clip0_41_5)"><circle cx="29.5" cy="29.5" r="8.5" fill="#38BFF2"/><circle cx="41.5" cy="5.5" r="4.5" fill="#38BFF2"/><circle cx="5.5" cy="17.5" r="4.5" fill="#38BFF2"/><circle cx="17.5" cy="53.5" r="4.5" fill="#38BFF2"/><circle cx="53.5" cy="41.5" r="4.5" fill="#38BFF2"/><path d="M20.73 27.15c-1.295 4.836 1.585 9.824 6.42 11.12.784.21 1.572.31 2.347.31 4.009 0 7.687-2.679 8.773-6.73a9.018 9.018 0 00-.908-6.89 9.02 9.02 0 00-5.512-4.23 9.018 9.018 0 00-6.89.908 9.021 9.021 0 00-4.23 5.513zm8.772-5.135c.639 0 1.289.083 1.935.256a7.432 7.432 0 014.544 3.487 7.433 7.433 0 01.748 5.679c-1.068 3.986-5.18 6.363-9.166 5.292-3.986-1.068-6.36-5.18-5.292-9.166.895-3.34 3.926-5.548 7.23-5.548zm-15.774 3.937l.058.002a.797.797 0 00.794-.74C15.582 11.23 26.064 5.25 36.275 5.403c.036.819.266 1.622.688 2.352a5.137 5.137 0 003.14 2.41 5.142 5.142 0 003.923-.517 5.13 5.13 0 002.084-2.264c3.724 1.439 7.2 3.584 10.336 6.403a.795.795 0 001.126-.06.797.797 0 00-.06-1.125c-3.315-2.981-7-5.244-10.951-6.753A5.175 5.175 0 0042.778.176a5.176 5.176 0 00-6.327 3.64C23.52 3.528 13.914 12.19 12.99 25.099a.8.8 0 00.739.853zM37.986 4.245a3.581 3.581 0 014.38-2.528 3.58 3.58 0 012.528 4.38 3.58 3.58 0 01-4.38 2.528 3.58 3.58 0 01-2.528-4.38zM3.816 22.549c-.288 12.93 8.373 22.536 21.283 23.462l.058.002a.798.798 0 00.056-1.593C11.227 43.418 5.244 32.929 5.404 22.717a5.14 5.14 0 002.352-.68 5.137 5.137 0 002.41-3.14 5.136 5.136 0 00-.518-3.922 5.131 5.131 0 00-2.263-2.085c1.439-3.724 3.584-7.2 6.403-10.337a.797.797 0 10-1.185-1.066c-2.981 3.316-5.244 7-6.753 10.952-2.534-.337-4.995 1.249-5.673 3.783a5.176 5.176 0 003.639 6.327zm-2.099-5.915a3.582 3.582 0 014.38-2.528 3.58 3.58 0 012.528 4.38 3.58 3.58 0 01-4.38 2.527 3.58 3.58 0 01-2.528-4.379zm43.555 16.414a.79.79 0 00-.852.739c-1.001 13.983-11.48 19.97-21.695 19.81a5.143 5.143 0 00-.688-2.353 5.137 5.137 0 00-3.14-2.41 5.138 5.138 0 00-3.922.518 5.13 5.13 0 00-2.085 2.263c-3.724-1.439-7.2-3.584-10.336-6.403a.796.796 0 10-1.067 1.185c3.317 2.981 7 5.244 10.952 6.753A5.175 5.175 0 0017.56 59a5.18 5.18 0 004.99-3.817c.209.005.42.015.626.015 12.614 0 21.925-8.596 22.835-21.297a.797.797 0 00-.738-.853zM21.014 54.755a3.58 3.58 0 01-4.38 2.528 3.58 3.58 0 01-2.528-4.38 3.581 3.581 0 014.38-2.527 3.58 3.58 0 012.527 4.379zm34.17-18.304c.288-12.93-8.373-22.536-21.283-23.462a.797.797 0 10-.114 1.591c13.983 1.002 19.967 11.486 19.809 21.695a5.145 5.145 0 00-2.352.688 5.137 5.137 0 00-2.41 3.14 5.136 5.136 0 00.518 3.923 5.13 5.13 0 002.263 2.084c-1.439 3.724-3.584 7.2-6.403 10.337a.797.797 0 101.185 1.066c2.98-3.315 5.243-6.998 6.751-10.948a5.18 5.18 0 005.675-3.787 5.177 5.177 0 00-3.639-6.327zm2.099 5.915a3.58 3.58 0 01-4.38 2.528 3.58 3.58 0 01-2.528-4.38 3.581 3.581 0 014.38-2.527 3.58 3.58 0 012.528 4.38z" fill="#1A2E35"/></g><defs><clipPath id="clip0_41_5"><path fill="#fff" d="M0 0h59v59H0z"/></clipPath></defs></svg>