<svg width="72" height="72" fill="none" xmlns="http://www.w3.org/2000/svg"><path d="M63.555 11.12v52.112a2.474 2.474 0 01-2.475 2.476H10.975a2.475 2.475 0 01-2.476-2.476v-3.244a4.83 4.83 0 01-3.42-1.42 4.792 4.792 0 01-1.42-3.427h4.84v-44.02a2.475 2.475 0 012.476-2.476H61.08a2.474 2.474 0 012.475 2.476z" fill="#fff"/><path d="M8.69 59.41c-2.562 0-3.812-3.05-4.117-4.574l49.85-.457c.941 3.765 3.071 4.884 4.428 5.03h.603a2.635 2.635 0 01-.603 0H8.689zm10.492-31.557a3.916 3.916 0 00-3.916 3.907 3.912 3.912 0 007.823 0 3.911 3.911 0 00-3.907-3.907z" fill="#38BFF2"/><path d="M19.182 27.853a3.916 3.916 0 00-3.916 3.907 3.912 3.912 0 007.823 0 3.911 3.911 0 00-3.907-3.907zm0 6.512a2.612 2.612 0 01-2.613-2.605 2.612 2.612 0 012.613-2.604 2.607 2.607 0 012.604 2.604 2.607 2.607 0 01-2.604 2.605z" fill="#1A2E35"/><path d="M30.753 27.853a3.916 3.916 0 00-3.916 3.907 3.912 3.912 0 007.823 0 3.911 3.911 0 00-3.907-3.907z" fill="#38BFF2"/><path d="M30.753 27.853a3.916 3.916 0 00-3.916 3.907 3.912 3.912 0 007.823 0 3.911 3.911 0 00-3.907-3.907zm0 6.512a2.612 2.612 0 01-2.613-2.605 2.612 2.612 0 012.613-2.604 2.607 2.607 0 012.604 2.604 2.608 2.608 0 01-2.604 2.605z" fill="#1A2E35"/><path d="M42.325 27.931a3.916 3.916 0 00-3.916 3.907 3.912 3.912 0 007.823 0 3.912 3.912 0 00-3.907-3.907z" fill="#38BFF2"/><path d="M42.325 27.853a3.916 3.916 0 00-3.916 3.907 3.912 3.912 0 007.823 0 3.912 3.912 0 00-3.907-3.907zm0 6.512a2.612 2.612 0 01-2.613-2.605 2.612 2.612 0 012.613-2.604 2.607 2.607 0 012.604 2.604 2.608 2.608 0 01-2.604 2.605z" fill="#1A2E35"/><path d="M53.896 35.668a3.912 3.912 0 003.907-3.908 3.912 3.912 0 00-7.823 0 3.916 3.916 0 003.916 3.908z" fill="#38BFF2"/><path d="M53.896 35.668a3.912 3.912 0 003.907-3.908 3.912 3.912 0 00-7.823 0 3.916 3.916 0 003.916 3.908zm0-6.512A2.607 2.607 0 0156.5 31.76a2.608 2.608 0 01-5.217 0 2.611 2.611 0 012.613-2.604z" fill="#1A2E35"/><path d="M19.182 38.83a3.916 3.916 0 00-3.916 3.907 3.911 3.911 0 007.823 0 3.912 3.912 0 00-3.907-3.908z" fill="#38BFF2"/><path d="M19.182 38.83a3.916 3.916 0 00-3.916 3.907 3.911 3.911 0 007.823 0 3.912 3.912 0 00-3.907-3.908zm0 6.51a2.611 2.611 0 01-2.613-2.603 2.607 2.607 0 015.217 0 2.607 2.607 0 01-2.604 2.604z" fill="#1A2E35"/><path d="M30.753 38.83a3.916 3.916 0 00-3.916 3.907 3.912 3.912 0 007.823 0 3.912 3.912 0 00-3.907-3.908z" fill="#38BFF2"/><path d="M30.753 38.83a3.916 3.916 0 00-3.916 3.907 3.912 3.912 0 007.823 0 3.912 3.912 0 00-3.907-3.908zm0 6.51a2.611 2.611 0 01-2.613-2.603 2.608 2.608 0 015.217 0 2.607 2.607 0 01-2.604 2.604zm11.572-6.51a3.916 3.916 0 00-3.916 3.907 3.912 3.912 0 007.823 0 3.912 3.912 0 00-3.908-3.908zm0 6.51a2.611 2.611 0 01-2.613-2.603 2.608 2.608 0 015.217 0 2.607 2.607 0 01-2.604 2.604zm15.478-2.603a3.912 3.912 0 00-7.823 0 3.912 3.912 0 007.823 0zm-3.907 2.604a2.611 2.611 0 01-2.613-2.604 2.608 2.608 0 015.217 0 2.607 2.607 0 01-2.604 2.604z" fill="#1A2E35"/><path d="M61.586 7.431h-5.228V3.906a.651.651 0 10-1.303 0v3.525H16.459V3.906a.651.651 0 10-1.303 0v3.525h-3.673a3.13 3.13 0 00-3.127 3.127L8.354 53.93h-4.19a.651.651 0 00-.652.651c0 2.893 2.184 5.14 4.842 5.453v2.637a3.13 3.13 0 003.127 3.127h50.105a3.13 3.13 0 003.127-3.127V10.558a3.13 3.13 0 00-3.127-3.127zM11.483 8.734h3.673v5.17a.651.651 0 101.303 0v-5.17h38.596v5.17a.651.651 0 101.302 0v-5.17h5.229c1.006 0 1.824.818 1.824 1.824v8.515H9.659v-8.515c0-1.006.818-1.824 1.824-1.824zM9.657 20.377H63.41v34.202a4.197 4.197 0 01-4.186 4.194h-.006a4.192 4.192 0 01-4.192-4.193.651.651 0 00-.652-.651H9.657V20.377zM4.865 55.232H53.76a5.47 5.47 0 001.905 3.54H9.007a4.193 4.193 0 01-4.142-3.54zM63.41 62.67a1.826 1.826 0 01-1.824 1.824H11.481a1.826 1.826 0 01-1.824-1.824v-2.593h49.564a5.48 5.48 0 004.19-1.951v4.544z" fill="#1A2E35"/></svg>