<svg width="60" height="60" fill="none" xmlns="http://www.w3.org/2000/svg"><path d="M39.266 4.02v51.96a3.093 3.093 0 01-3.093 3.092H8.248a3.093 3.093 0 01-3.093-3.093V4.021A3.093 3.093 0 018.248.928h27.925a3.093 3.093 0 013.093 3.093z" fill="#fff"/><path d="M30.815.928v2.47A2.474 2.474 0 0128.34 5.87H16.08a2.474 2.474 0 01-2.474-2.474V.927h17.209zm24.03 19.837v19.707a2.474 2.474 0 01-2.474 2.474H22.21V18.291h30.16a2.474 2.474 0 012.475 2.474z" fill="#38BFF2"/><path d="M22.21 23.347h32.635v6.131H22.21v-6.13z" fill="#D7E9FF"/><path d="M14.056 54.742a.618.618 0 100 1.237h16.31a.618.618 0 100-1.237h-16.31zM26.697 4.018h1.105a.618.618 0 100-1.237h-1.105a.618.618 0 100 1.237zm-10.077 0h7.178a.618.618 0 100-1.237H16.62a.618.618 0 100 1.237z" fill="#1A2E35"/><path d="M52.37 17.672H39.886V4.021A3.715 3.715 0 0036.174.309H8.248a3.715 3.715 0 00-3.711 3.712v51.958a3.715 3.715 0 003.71 3.712h27.926a3.715 3.715 0 003.712-3.712V43.565H52.37a3.096 3.096 0 003.093-3.093V20.765a3.096 3.096 0 00-3.093-3.093zm1.857 3.093v1.964H22.829v-3.82H52.37c1.023 0 1.855.833 1.855 1.856zm0 8.095H22.829v-4.894h31.398v4.893zM30.197 1.546v1.851a1.858 1.858 0 01-1.857 1.856H16.08a1.858 1.858 0 01-1.855-1.856v-1.85h15.971zm8.45 54.433a2.477 2.477 0 01-2.473 2.474H8.248a2.477 2.477 0 01-2.474-2.474V4.021a2.477 2.477 0 012.474-2.475h4.74v1.851A3.096 3.096 0 0016.08 6.49h12.26a3.096 3.096 0 003.092-3.093v-1.85h4.74a2.477 2.477 0 012.475 2.474v13.651h-15.82v-2.79a.618.618 0 10-1.236 0v31.466a.618.618 0 101.236 0v-2.783h15.82v12.414zm13.724-13.651H22.829v-7.56h20.45a.618.618 0 100-1.238h-20.45v-3.433h31.398v10.375a1.858 1.858 0 01-1.856 1.856z" fill="#1A2E35"/><path d="M43.279 37.657h-1.772a.618.618 0 100 1.237h1.772a.618.618 0 100-1.237zm-5.066 0h-1.772a.618.618 0 100 1.237h1.772a.618.618 0 100-1.237zm-5.065 0h-1.772a.618.618 0 100 1.237h1.772a.618.618 0 100-1.237zm-5.065 0H26.31a.618.618 0 100 1.237h1.772a.618.618 0 100-1.237z" fill="#1A2E35"/></svg>