<svg width="35" height="35" xmlns="http://www.w3.org/2000/svg"><path d="M34.888 17.437c0 9.63-7.807 17.437-17.437 17.437S.014 27.067.014 17.437 7.821 0 17.451 0s17.437 7.807 17.437 17.437z" fill="#22253B"/><path d="M21.4 8.687h-8.188A4.839 4.839 0 008.38 13.52v8.189a4.839 4.839 0 004.833 4.833h8.19a4.839 4.839 0 004.832-4.833v-8.19a4.839 4.839 0 00-4.833-4.832zm-4.093 13.81a4.888 4.888 0 01-4.883-4.883 4.888 4.888 0 014.883-4.882 4.888 4.888 0 014.882 4.882 4.888 4.888 0 01-4.883 4.882zm4.998-8.614a1.444 1.444 0 01-1.442-1.442c0-.796.647-1.443 1.442-1.443.796 0 1.443.647 1.443 1.443 0 .795-.647 1.442-1.443 1.442z" fill="#fff"/><path d="M17.307 13.779a3.84 3.84 0 00-3.836 3.835 3.84 3.84 0 003.836 3.836 3.84 3.84 0 003.835-3.836 3.84 3.84 0 00-3.835-3.835zm4.998-1.734a.396.396 0 10.002.793.396.396 0 00-.002-.793z" fill="#fff"/></svg>