<svg width="61" height="61" fill="none" xmlns="http://www.w3.org/2000/svg"><path d="M60.363 3.177v8.19H.636v-8.19A2.542 2.542 0 013.177.636h54.644a2.542 2.542 0 012.542 2.541z" fill="#38BFF2"/><path d="M60.364 11.368v46.455a2.541 2.541 0 01-2.541 2.541H3.177a2.541 2.541 0 01-2.541-2.541V11.368h59.728z" fill="#fff"/><path d="M55.916 28.83V17.085a1.27 1.27 0 00-1.27-1.27H6.353a1.27 1.27 0 00-1.27 1.27V28.83a1.27 1.27 0 001.27 1.271h48.291c.702 0 1.271-.57 1.271-1.27z" fill="#38BFF2"/><path d="M28.302 6.002a1.51 1.51 0 01-1.51 1.509H5.957a1.51 1.51 0 110-3.018h20.835c.834 0 1.51.675 1.51 1.509zm26.695 1.553a1.553 1.553 0 100-3.107 1.553 1.553 0 000 3.107zm-6.243 0a1.553 1.553 0 100-3.107 1.553 1.553 0 000 3.107zm-6.243 0a1.554 1.554 0 100-3.107 1.554 1.554 0 000 3.107z" fill="#fff"/><path d="M37.49 43.978v-8.16a1.27 1.27 0 00-1.272-1.27H24.782a1.27 1.27 0 00-1.27 1.27v8.16c0 .701.568 1.27 1.27 1.27H36.22a1.27 1.27 0 001.27-1.27zm-18.427 0v-8.16a1.27 1.27 0 00-1.271-1.27H6.354a1.27 1.27 0 00-1.27 1.27v8.16c0 .701.569 1.27 1.27 1.27h11.438a1.27 1.27 0 001.27-1.27zm36.854 0v-8.16a1.27 1.27 0 00-1.271-1.27H43.208a1.27 1.27 0 00-1.27 1.27v8.16c0 .701.569 1.27 1.27 1.27h11.438a1.27 1.27 0 001.27-1.27z" fill="#38BFF2"/><path d="M60.999 3.177A3.18 3.18 0 0057.822 0H3.177A3.18 3.18 0 000 3.177v54.646A3.18 3.18 0 003.177 61h54.646A3.18 3.18 0 0061 57.823l-.001-54.646zm-59.728 0c0-1.05.855-1.906 1.907-1.906H57.82c1.052 0 1.907.855 1.907 1.906v7.555H1.27V3.177zM57.823 59.73H3.177a1.908 1.908 0 01-1.906-1.906v-45.82H59.73v45.82a1.908 1.908 0 01-1.906 1.906z" fill="#1A2E35"/><path d="M54.645 15.18H6.355a1.908 1.908 0 00-1.907 1.906V28.83c0 1.051.855 1.906 1.906 1.906h48.292a1.908 1.908 0 001.906-1.906V17.086a1.908 1.908 0 00-1.907-1.906zm.636 13.649c0 .35-.285.635-.635.635H6.354a.636.636 0 01-.635-.635V17.086c0-.35.285-.635.635-.635h48.292c.35 0 .635.285.635.635V28.83zM26.793 3.858H5.958a2.147 2.147 0 00-2.145 2.144c0 1.183.962 2.145 2.145 2.145h20.835a2.147 2.147 0 002.144-2.145 2.147 2.147 0 00-2.144-2.144zm0 3.018H5.958a.875.875 0 01-.874-.874c0-.481.392-.873.874-.873h20.835c.481 0 .873.392.873.873a.875.875 0 01-.873.874zm28.204-3.063a2.191 2.191 0 00-2.189 2.19c0 1.206.982 2.188 2.189 2.188s2.189-.982 2.189-2.189-.982-2.189-2.19-2.189zm0 3.107a.918.918 0 11.001-1.837.918.918 0 01-.001 1.837zm-6.242-3.107c-1.207 0-2.19.982-2.19 2.19 0 1.206.983 2.188 2.19 2.188a2.19 2.19 0 002.188-2.189 2.19 2.19 0 00-2.188-2.189zm0 3.107a.919.919 0 110-1.838.919.919 0 010 1.838zm-6.244-3.107a2.192 2.192 0 00-2.189 2.19c0 1.206.983 2.188 2.19 2.188A2.19 2.19 0 0044.7 6.002a2.192 2.192 0 00-2.189-2.189zm0 3.107a.919.919 0 11.002-1.838.919.919 0 01-.002 1.838zM19.063 49.06H5.083a.635.635 0 100 1.271h13.98a.635.635 0 100-1.27zm0 6.221H5.083a.635.635 0 100 1.271h13.98a.635.635 0 100-1.27zm0-3.11H5.083a.635.635 0 100 1.27h13.98a.635.635 0 100-1.27zM37.49 49.06H23.51a.635.635 0 100 1.271h13.98a.635.635 0 100-1.27zm0 6.221H23.51a.635.635 0 100 1.271h13.98a.635.635 0 100-1.27zm0-3.11H23.51a.635.635 0 100 1.27h13.98a.635.635 0 100-1.27zm18.427-3.111h-13.98a.635.635 0 100 1.271h13.98a.635.635 0 100-1.27zm0 6.221h-13.98a.635.635 0 100 1.271h13.98a.635.635 0 100-1.27zm0-3.11h-13.98a.635.635 0 100 1.27h13.98a.635.635 0 100-1.27zM36.219 33.912H24.78a1.908 1.908 0 00-1.906 1.907v8.159c0 1.051.855 1.906 1.906 1.906h11.44a1.908 1.908 0 001.906-1.906v-8.16a1.908 1.908 0 00-1.906-1.906zm.635 10.066c0 .35-.285.635-.635.635H24.78a.636.636 0 01-.635-.635v-8.16c0-.35.285-.635.635-.635h11.44c.35 0 .635.285.635.636v8.159zM17.792 33.912H6.354a1.908 1.908 0 00-1.906 1.907v8.159c0 1.051.855 1.906 1.906 1.906h11.438a1.908 1.908 0 001.906-1.906v-8.16a1.908 1.908 0 00-1.906-1.906zm.635 10.066c0 .35-.285.635-.635.635H6.354a.636.636 0 01-.635-.635v-8.16c0-.35.285-.635.635-.635h11.438c.35 0 .635.285.635.636v8.159zm36.218-10.066H43.208a1.908 1.908 0 00-1.906 1.907v8.159c0 1.051.855 1.906 1.906 1.906h11.437a1.908 1.908 0 001.907-1.906v-8.16a1.908 1.908 0 00-1.907-1.906zm.636 10.066c0 .35-.285.635-.636.635H43.209a.636.636 0 01-.635-.635v-8.16c0-.35.285-.635.635-.635h11.438c.35 0 .635.285.635.636v8.159z" fill="#1A2E35"/></svg>